<?xml version="1.0" encoding="UTF-8"?>
<svg width="24px" height="24px" viewBox="0 0 24 24" version="1.1" xmlns="http://www.w3.org/2000/svg" xmlns:xlink="http://www.w3.org/1999/xlink">
    <!-- Generator: Sketch 47.1 (45422) - http://www.bohemiancoding.com/sketch -->
    <title>icon-parking-garage</title>
    <desc>Created with Sketch.</desc>
    <defs></defs>
    <g id="Page-1" stroke="none" stroke-width="1" fill="none" fill-rule="evenodd">
        <g id="icon-parking-garage">
            <rect id="Rectangle" fill="#003082" x="0" y="0" width="24" height="24"></rect>
            <polygon id="Dach" fill="#FFFFFF" points="4.17391304 9.43478261 4.17391304 6.91692735 12.5082237 3.17391304 20.8695652 6.91692735 20.8695652 9.43478261 12.5082237 5.50328229"></polygon>
            <path d="M8.34782609,19.826087 L8.34782609,8.34782609 C10.8562761,8.34782609 12.582296,8.34782609 13.5258855,8.34782609 C14.9412698,8.34782609 16.6956522,9.16990153 16.6956522,12.1147001 C16.6956522,15.0594986 14.535216,15.3512612 13.5258855,15.3656399 C12.8529985,15.3752257 11.9957738,15.3752257 10.9542114,15.3656399 L10.9542114,19.826087 L8.34782609,19.826087 Z M10.9349399,13.4340287 C11.5886681,13.4340287 12.1612908,13.4340287 12.6528078,13.4340287 C13.3900834,13.4340287 14.1915974,12.8037444 14.1918228,11.7359861 C14.1920482,10.6682277 13.3363261,10.2744557 12.6528078,10.2744557 C12.197129,10.2744557 11.6245064,10.2744557 10.9349399,10.2744557 L10.9349399,13.4340287 Z" id="P" fill="#FFFFFF"></path>
        </g>
    </g>
</svg>