<?xml version="1.0" encoding="UTF-8"?>
<svg width="24px" height="24px" viewBox="0 0 24 24" version="1.1" xmlns="http://www.w3.org/2000/svg" xmlns:xlink="http://www.w3.org/1999/xlink">
    <!-- Generator: Sketch 47.1 (45422) - http://www.bohemiancoding.com/sketch -->
    <title>icon-parking-space</title>
    <desc>Created with Sketch.</desc>
    <defs></defs>
    <g id="Page-1" stroke="none" stroke-width="1" fill="none" fill-rule="evenodd">
        <g id="icon-parking-space">
            <rect id="Rectangle" fill="#003082" x="0" y="0" width="24" height="24"></rect>
            <path d="M8.34782609,17.826087 L8.34782609,6.34782609 C10.8562761,6.34782609 12.582296,6.34782609 13.5258855,6.34782609 C14.9412698,6.34782609 16.6956522,7.16990153 16.6956522,10.1147001 C16.6956522,13.0594986 14.535216,13.3512612 13.5258855,13.3656399 C12.8529985,13.3752257 11.9957738,13.3752257 10.9542114,13.3656399 L10.9542114,17.826087 L8.34782609,17.826087 Z M10.9349399,11.4340287 C11.5886681,11.4340287 12.1612908,11.4340287 12.6528078,11.4340287 C13.3900834,11.4340287 14.1915974,10.8037444 14.1918228,9.73598606 C14.1920482,8.6682277 13.3363261,8.27445572 12.6528078,8.27445572 C12.197129,8.27445572 11.6245064,8.27445572 10.9349399,8.27445572 L10.9349399,11.4340287 Z" id="P" fill="#FFFFFF"></path>
        </g>
    </g>
</svg>