<svg width="39" height="144" viewBox="0 0 39 144" xmlns="http://www.w3.org/2000/svg"><title>Logo</title><g fill="none" fill-rule="evenodd"><path fill="#003082" d="M0 144V92L7 0l8 92h10l8-92 6 92v52z"/><path fill="#FFF" d="M6.038 118.178v-4.05l13.96-6.023 14.005 6.022v4.051l-14.005-6.325z"/><path d="M13.974 134.062V116.06h8.158c2.23 0 4.994 1.289 4.994 5.907s-3.404 5.076-4.994 5.098c-1.06.015-2.41.015-4.052 0v6.996h-4.106zm4.076-10.025h2.706c1.162 0 2.425-.988 2.425-2.663 0-1.674-1.348-2.292-2.425-2.292H18.05v4.955z" fill="#FFF"/></g></svg>