<?xml version="1.0" encoding="UTF-8"?>
<svg width="39px" height="39px" viewBox="0 0 39 39" version="1.1" xmlns="http://www.w3.org/2000/svg" xmlns:xlink="http://www.w3.org/1999/xlink">
    <!-- Generator: Sketch 47.1 (45422) - http://www.bohemiancoding.com/sketch -->
    <title>parking</title>
    <desc>Created with Sketch.</desc>
    <defs></defs>
    <g id="Page-1" stroke="none" stroke-width="1" fill="none" fill-rule="evenodd">
        <g id="parking">
            <rect id="Rectangle" fill="#003082" x="0" y="0" width="39" height="39"></rect>
            <polygon id="Dach" fill="#FFFFFF" points="6.03764205 16.178267 6.03764205 12.1271307 19.9976918 6.10475852 34.0030185 12.1271307 34.0030185 16.178267 19.9976918 9.85262784"></polygon>
            <path d="M13.9737216,32.0616122 L13.9737216,14.0605469 C17.9257813,14.0605469 20.6451231,14.0605469 22.1317472,14.0605469 C24.3616832,14.0605469 27.1257102,15.3497869 27.1257102,19.9680398 C27.1257102,24.5862926 23.721946,25.0438565 22.1317472,25.0664062 C21.0716146,25.0814394 19.7210582,25.0814394 18.0800781,25.0664062 L18.0800781,32.0616122 L13.9737216,32.0616122 Z M18.0497159,22.0371094 C19.0796638,22.0371094 19.98183,22.0371094 20.7562145,22.0371094 C21.9177912,22.0371094 23.1805753,21.0486506 23.1809304,19.3741122 C23.1812855,17.6995739 21.8330966,17.0820312 20.7562145,17.0820312 C20.0382931,17.0820312 19.1361269,17.0820312 18.0497159,17.0820312 L18.0497159,22.0371094 Z" id="P" fill="#FFFFFF"></path>
        </g>
    </g>
</svg>